<?xml version="1.0" encoding="UTF-8" standalone="no"?>
<!-- Created with Inkscape (http://www.inkscape.org/) -->

<svg
   width="48"
   height="48"
   viewBox="0 0 12.7 12.7"
   version="1.1"
   id="svg5"
   xml:space="preserve"
   xmlns="http://www.w3.org/2000/svg"
   xmlns:svg="http://www.w3.org/2000/svg"><defs
     id="defs2" /><g
     id="layer1"><path
       id="path482"
       style="color:#000000;display:inline;overflow:visible;fill:#000000;fill-opacity:1;stroke-width:0.0367212;stroke-linecap:round;stroke-opacity:0.7"
       d="M 6.3500002,0 C 2.8429961,2.0710634e-6 2.0710634e-6,2.8429961 0,6.3500002 2.3299463e-6,9.8570036 2.8429963,12.699998 6.3500002,12.7 9.8570036,12.699998 12.699998,9.8570036 12.7,6.3500002 12.699998,2.8429963 9.8570036,2.3299463e-6 6.3500002,0 Z m 0,0.45108681 c 3.2578791,-2.33e-6 5.8989158,2.64103459 5.8989128,5.89891339 3e-6,3.2578787 -2.6410341,5.8989158 -5.8989128,5.8989128 C 3.0921214,12.248916 0.45108448,9.6078789 0.45108681,6.3500002 0.45108432,3.0921215 3.0921212,0.45108459 6.3500002,0.45108681 Z m 0.1218914,0.58261949 9.38e-5,2.203e-4 C 5.9657982,1.031828 5.544683,1.096897 5.5139527,1.2199133 5.4007571,1.6731276 4.8284279,3.4037426 4.7798405,3.4330777 c -5.859e-4,3.375e-4 0.00105,0.00735 0.00419,0.01732 L 2.8815344,2.1187903 C 2.299376,2.5966078 1.8219048,3.1892562 1.4789068,3.8597451 L 6.3498549,7.2705835 11.229475,3.8537861 C 10.885553,3.1834336 10.407142,2.5911514 9.8241339,2.1139214 L 7.877717,3.476968 C 7.8693259,3.4685746 7.8583051,3.4571366 7.8571515,3.4557727 7.7318584,3.3159799 7.3182071,1.8989631 7.3757129,1.8059218 c 0.039133,-0.06337 0.1898836,-0.080163 0.4066125,-0.04554 0.1892934,0.030321 0.3437531,0.03285 0.3437531,0.00526 0,-0.1789271 -0.2938275,-0.561735 -0.4630289,-0.6028943 C 7.3107352,1.077026 6.8655966,1.0351437 6.4718916,1.0337063 Z m 0.5663658,0.1996729 3.282e-4,7.03e-5 c 0.018675,3.047e-4 0.040691,0.00524 0.066081,0.014582 0.073337,0.028118 0.133374,0.087102 0.133374,0.1306849 0,0.093167 -0.1222205,0.1049428 -0.2071097,0.020033 -0.087712,-0.087711 -0.073442,-0.1667366 0.00734,-0.1653727 z M 1.3383146,4.0074347 1.3260576,4.0350008 C 0.90565239,4.9491029 0.73417084,5.979533 0.85794184,6.9794673 0.87307234,7.1106507 0.89419794,7.2410307 0.91525424,7.3713765 1.3442299,6.4516932 1.7731679,5.5319827 2.2020216,4.6122428 1.9140466,4.4107478 1.6261767,4.2090912 1.3383146,4.0074347 Z m 10.0224744,1.922e-4 c -0.0081,0.00571 -0.01632,0.011419 -0.02447,0.017126 -0.279524,0.1957287 -0.558934,0.3917447 -0.838346,0.5876821 0.428859,0.9195267 0.857694,1.8390717 1.286598,2.7585769 0.08229,-0.4662614 0.120147,-0.9423188 0.08309,-1.4151994 C 11.819884,5.2825412 11.64584,4.6191563 11.360789,4.0076269 Z M 2.3304779,4.7020613 2.3179299,4.7287796 C 1.8702658,5.6879729 1.4229948,6.6476068 0.97559423,7.6070199 1.1128086,8.1970271 1.3456519,8.7652145 1.6654261,9.2797857 c 0.024906,0.025872 0.05618,-0.00512 0.060897,-0.032289 C 2.3076325,7.9987131 2.8905145,6.7501182 3.4724133,5.5014071 3.0917037,5.2350502 2.7110577,4.9686024 2.3304779,4.7020613 Z m 8.0391411,0 c -0.0081,0.00565 -0.01609,0.011286 -0.02415,0.016932 C 9.9728552,4.9798037 9.6003044,5.2407099 9.2276111,5.5014071 9.8215394,6.7753337 10.415464,8.0492499 11.009407,9.32317 11.336494,8.7986748 11.58258,8.2219881 11.720482,7.6190106 11.720623,7.5741292 11.686952,7.5389157 11.673492,7.4976273 11.238855,6.565778 10.804363,5.6338627 10.369623,4.7020613 Z M 3.6006766,5.5917615 c -0.00415,0.00891 -0.0083,0.017831 -0.012451,0.026743 C 2.9896837,6.9017532 2.3913602,8.1851565 1.7929621,9.4684871 2.0699283,9.8793254 2.4030249,10.251585 2.7775193,10.575808 3.4292312,9.1786257 4.0808896,7.7814015 4.732463,6.3841548 4.3551272,6.1201379 3.9779351,5.8558894 3.6006766,5.5917615 Z m 5.4985743,0 c -0.00806,0.00565 -0.016118,0.011287 -0.024175,0.016932 C 8.7059034,5.8671746 8.3368111,6.1257849 7.9675612,6.3841548 8.6191345,7.7814015 9.2707688,9.1786257 9.9224808,10.575808 10.296976,10.251585 10.630072,9.8793245 10.907038,9.4684871 10.30453,8.1762095 9.701957,6.8839463 9.0992509,5.5917615 Z m -4.1463315,1.510252 c -0.00388,0.00967 -0.00775,0.019345 -0.011627,0.029019 -0.5222493,1.2928791 -1.044819,2.5856752 -1.5671283,3.8785425 0.9008743,0.576627 1.9709044,0.886212 3.0409725,0.871798 0.9798155,-0.01149 1.9548291,-0.290041 2.7922955,-0.798958 0.039829,-0.0237 0.078941,-0.04859 0.1185005,-0.07274 C 8.7995577,9.7071929 8.2732926,8.4046646 7.7471047,7.1021101 7.2813791,7.4280896 6.8157022,7.7541634 6.35,8.0801757 5.8843121,7.7541123 5.4185588,7.4281454 4.9529194,7.1020135 Z" /></g></svg>
