<?xml version="1.0" encoding="UTF-8" standalone="no"?>
<!-- Created with Inkscape (http://www.inkscape.org/) -->

<svg
   width="210mm"
   height="297mm"
   viewBox="0 0 210 297"
   version="1.1"
   id="svg1095"
   xmlns="http://www.w3.org/2000/svg"
   xmlns:svg="http://www.w3.org/2000/svg">
  <defs
     id="defs1092" />
  <g
     id="layer1"
     style="display:inline">
    <path
       id="path945"
       style="color:#000000;display:inline;overflow:visible;fill:#000000;fill-opacity:1;stroke-width:0.0349999;stroke-linecap:round;stroke-opacity:0.7"
       d="M 6.1629113,0.12710404 A 6.0523437,6.0523437 0 0 0 0.11056758,6.1794477 6.0523437,6.0523437 0 0 0 6.1629113,12.231791 6.0523437,6.0523437 0 0 0 12.215255,6.1794477 6.0523437,6.0523437 0 0 0 6.1629113,0.12710404 Z m 0,0.42994791 A 5.622396,5.622396 0 0 1 11.785307,6.1794477 5.622396,5.622396 0 0 1 6.1629113,11.801843 5.622396,5.622396 0 0 1 0.54051549,6.1794477 5.622396,5.622396 0 0 1 6.1629113,0.55705195 Z M 6.2791832,1.1125736 C 5.7967179,1.1108062 5.39535,1.1725518 5.3660606,1.2898237 5.2581733,1.7217981 4.7126708,3.3712997 4.6663618,3.3992558 c -5.556e-4,3.175e-4 0.00132,0.00656 0.00414,0.016536 L 2.8571698,2.146619 C 2.3023062,2.6020353 1.8472227,3.1668876 1.5203006,3.8059492 L 6.1629113,7.0569135 10.81379,3.8002647 C 10.485993,3.1613353 10.030023,2.5968254 9.474337,2.1419681 L 7.619153,3.4411137 C 7.6110938,3.432901 7.6006745,3.4222542 7.5995157,3.4209604 7.4800952,3.2877178 7.08582,1.9371285 7.1406287,1.8484465 7.1779296,1.7880925 7.3216362,1.7720113 7.528202,1.8050383 7.7086203,1.8338923 7.8558308,1.836352 7.8558308,1.8102059 7.8558308,1.6396682 7.5757809,1.274802 7.414514,1.235564 7.0787149,1.1538601 6.6544341,1.113949 6.2791832,1.1125736 Z M 6.819202,1.3027429 c 0.01783,2.989e-4 0.038847,0.00467 0.063045,0.013953 0.06985,0.026804 0.1271241,0.082955 0.1271241,0.1245402 5e-7,0.088765 -0.1164881,0.1000362 -0.1974041,0.01912 C 6.728408,1.3767971 6.741941,1.3014444 6.819197,1.302743 Z M 1.4060957,4.0183393 C 1.0974803,4.6970236 0.93766724,5.4338902 0.93739048,6.1794477 c 0.001521,0.2723203 0.024329,0.544105 0.0682129,0.8128704 L 2.1497196,4.5392377 Z m 9.5131143,0 -0.743107,0.5208984 1.144116,2.4530804 C 11.364103,6.7235527 11.38691,6.451768 11.388432,6.1794477 11.387982,5.4338527 11.228003,4.6969841 10.91921,4.0183393 Z M 2.3507409,4.6797976 1.0903527,7.382475 C 1.2166018,7.9225269 1.4280203,8.439037 1.7166711,8.9126141 L 3.3604983,5.3867312 Z m 7.6243407,0 -1.0097574,0.7069336 1.6438278,3.5258829 C 10.897802,8.439037 11.109221,7.9225267 11.23547,7.382475 Z M 3.5615197,5.5278078 1.8737674,9.1472252 C 2.1207678,9.509829 2.412451,9.8398821 2.7419313,10.129594 L 4.5614587,6.2280236 Z m 5.2027831,0 -0.999939,0.7002158 1.8195274,3.9015704 C 9.9133712,9.8398821 10.205055,9.509829 10.452055,9.1472252 Z M 4.8529137,6.9690636 3.385303,10.6014 c 0.8318553,0.523785 1.7945859,0.802306 2.7776083,0.803568 0.9830223,-0.0013 1.9457529,-0.279783 2.7776082,-0.803568 L 7.4729088,6.9690636 6.1629113,7.8863203 Z" />
  </g>
</svg>
