<?xml version="1.0" encoding="UTF-8" standalone="no"?>
<!-- Created with Inkscape (http://www.inkscape.org/) -->

<svg
   width="210mm"
   height="297mm"
   viewBox="0 0 210 297"
   version="1.1"
   id="svg5"
   xmlns="http://www.w3.org/2000/svg"
   xmlns:svg="http://www.w3.org/2000/svg">
  <defs
     id="defs2" />
  <g
     id="layer1">
    <path
       style="fill:#000000;stroke-width:0.351562"
       d="M 82.617188,179.64169 C 57.417469,177.27365 35.234448,165.39046 19.626777,145.89844 9.378,133.099 2.8440327,117.41135 0.66445833,100.37109 0.08850949,95.868232 0.08462351,84.177995 0.65756338,79.628906 4.0036574,53.061244 18.158093,29.968867 40.078125,15.315893 51.781855,7.4922536 64.261346,2.7755448 78.398698,0.83237266 83.755969,0.09601817 95.270643,0.00692064 100.37109,0.66235598 111.21689,2.0560984 120.37776,4.8087179 130.05201,9.5807457 156.95592,22.851673 175.6608,49.371803 179.28046,79.37775 c 2.60836,21.62258 -3.02318,44.12378 -15.50498,61.9512 -14.58891,20.83694 -36.85104,34.37755 -62.17392,37.81636 -4.721956,0.64124 -14.673812,0.90145 -18.984372,0.49638 z m 16.197366,-20.22706 c 4.908736,-0.68465 10.708906,-2.1441 15.267476,-3.84163 4.17507,-1.55472 11.42941,-5.0562 11.64628,-5.62135 0.0842,-0.21937 -7.8665,-8.48636 -17.66817,-18.37108 L 90.238911,113.60835 72.18977,131.41356 c -9.927032,9.79285 -18.049145,17.99906 -18.049145,18.236 0,0.23694 1.384277,1.18543 3.076172,2.10775 6.572306,3.58283 14.683486,6.34848 22.042269,7.51571 5.086343,0.80679 14.30763,0.87356 19.555488,0.14161 z M 48.696546,108.0847 66.558874,89.95847 53.225438,76.531968 C 45.892048,69.147394 37.844807,61.009277 35.34268,58.447266 c -2.502126,-2.562012 -4.661558,-4.658203 -4.798738,-4.658203 -0.43319,0 -4.174561,7.633184 -5.595291,11.415571 -3.058376,8.142272 -4.219756,14.401786 -4.437418,23.91646 -0.15406,6.734454 -0.09183,7.830488 0.708674,12.480466 0.894592,5.19656 2.780367,11.56116 4.80467,16.21605 1.446466,3.32616 4.186237,8.39333 4.538191,8.39333 0.149298,0 8.309498,-8.15681 18.133778,-18.12624 z m 103.435804,13.29225 c 7.70353,-15.41237 9.46156,-31.767209 5.21492,-48.513924 -1.60902,-6.345162 -5.53777,-15.998628 -7.45565,-18.319517 l -0.68388,-0.827589 -17.83861,18.017898 c -9.81124,9.90984 -17.79218,18.157187 -17.73543,18.327431 0.16636,0.499103 35.45674,36.149691 35.78443,36.149691 0.16394,0 1.38534,-2.1753 2.71422,-4.83399 z M 108.19468,48.309216 c 9.71703,-9.782385 17.56742,-17.947806 17.44532,-18.14538 -0.44215,-0.715412 -9.54822,-4.884155 -13.66734,-6.25689 -15.905932,-5.300785 -31.999356,-4.980914 -46.933597,0.932846 -4.561992,1.806487 -10.889403,5.038574 -10.905026,5.570364 -0.0129,0.439073 35.559647,35.641565 36.041744,35.666807 0.19336,0.01012 8.301864,-7.985363 18.018899,-17.767747 z"
       id="path854" />
  </g>
</svg>
