<?xml version="1.0" encoding="UTF-8" standalone="no"?>
<!-- Created with Inkscape (http://www.inkscape.org/) -->

<svg
   width="210mm"
   height="297mm"
   viewBox="0 0 210 297"
   version="1.1"
   id="svg1"
   xml:space="preserve"
   xmlns="http://www.w3.org/2000/svg"
   xmlns:svg="http://www.w3.org/2000/svg"><defs
     id="defs1" /><g
     id="layer1"
     transform="translate(-28.113066,-28.560802)"><g
       id="g6"
       style="display:inline;stroke:#000000;stroke-width:2.5;stroke-linecap:round;stroke-dasharray:none;stroke-opacity:1"><path
         id="rect4"
         style="fill:none;stroke:#000000;stroke-width:2.5;stroke-linecap:round;stroke-linejoin:round;stroke-dasharray:none;stroke-opacity:1"
         d="m 48.123346,56.83846 h 6.876048 c 0.306867,0 0.553912,0.247045 0.553912,0.553912 v 6.876047 c 0,0.306867 -0.247045,0.553912 -0.553912,0.553912 h -6.876048 c -0.306867,0 -0.553911,-0.247045 -0.553911,-0.553912 v -6.876047 c 0,-0.306867 0.247044,-0.553912 0.553911,-0.553912 z" /><path
         style="fill:none;stroke:#000000;stroke-width:2.5;stroke-linecap:round;stroke-linejoin:round;stroke-dasharray:none;stroke-opacity:1"
         d="M 70.398986,57.260079 H 60.024848"
         id="path5" /><path
         style="fill:none;stroke:#000000;stroke-width:2.5;stroke-linecap:round;stroke-linejoin:round;stroke-dasharray:none;stroke-opacity:1"
         d="M 70.398986,65.59641 H 60.024848"
         id="path6" /><path
         id="path15"
         style="display:inline;stroke:#000000;stroke-width:2.5;stroke-linecap:square;stroke-dasharray:none;stroke-opacity:1;fill:none;stroke-linejoin:round"
         d="M 13.870633,6.0200219 A 4.5926023,4.5926023 0 0 1 9.2780304,10.612624 4.5926023,4.5926023 0 0 1 4.6854281,6.0200219 4.5926023,4.5926023 0 0 1 9.2780304,1.4274197 4.5926023,4.5926023 0 0 1 13.870633,6.0200219 Z M 16.98618,18.320774 a 7.7081499,7.7081499 0 0 0 -3.854075,-6.675454 7.7081499,7.7081499 0 0 0 -7.7081498,10e-7 7.7081499,7.7081499 0 0 0 -3.8540747,6.675453"
         transform="translate(28.113066,51.438774)" /></g><g
       id="g9"
       transform="translate(0,-22.877972)"
       style="display:inline;stroke:#000000;stroke-width:2.5;stroke-linecap:round;stroke-dasharray:none;stroke-opacity:1"><path
         style="fill:none;stroke:#000000;stroke-width:2.5;stroke-linecap:round;stroke-linejoin:round;stroke-dasharray:none;stroke-opacity:1"
         d="m 46.109395,60.531954 4.03629,3.814517 6.867661,-8.946305"
         id="path10" /><path
         style="fill:none;stroke:#000000;stroke-width:2.5;stroke-linecap:round;stroke-linejoin:round;stroke-dasharray:none;stroke-opacity:1"
         d="M 70.398986,57.260079 H 60.024848"
         id="path8" /><path
         style="fill:none;stroke:#000000;stroke-width:2.5;stroke-linecap:round;stroke-linejoin:round;stroke-dasharray:none;stroke-opacity:1"
         d="M 70.398986,65.59641 H 60.024848"
         id="path9" /><path
         id="path3"
         style="display:inline;fill:none;stroke:#000000;stroke-width:2.5;stroke-linecap:square;stroke-linejoin:round"
         d="M 13.870633,6.0200219 A 4.5926023,4.5926023 0 0 1 9.2780304,10.612624 4.5926023,4.5926023 0 0 1 4.6854281,6.0200219 4.5926023,4.5926023 0 0 1 9.2780304,1.4274197 4.5926023,4.5926023 0 0 1 13.870633,6.0200219 Z M 16.98618,18.320774 a 7.7081499,7.7081499 0 0 0 -3.854075,-6.675454 7.7081499,7.7081499 0 0 0 -7.7081498,10e-7 7.7081499,7.7081499 0 0 0 -3.8540747,6.675453"
         transform="translate(28.113066,51.438774)" /></g></g><g
     id="layer1-5"
     transform="matrix(0.90203051,0,0,0.90203051,-73.792701,-16.254644)"
     style="display:inline"><path
       style="display:inline;fill:#000000;stroke-width:0.163871"
       d="m 101.45781,149.79208 c -0.091,-0.11266 -0.6593,-1.53219 -1.26278,-3.15452 -1.123127,-3.01929 -1.871995,-4.57804 -2.755492,-5.73548 -1.340547,-1.75621 -3.276629,-3.38505 -5.115028,-4.30333 -0.540774,-0.27011 -2.236839,-0.9547 -3.769032,-1.5213 -1.532194,-0.56661 -2.877984,-1.10078 -2.990645,-1.18704 -0.307287,-0.23529 -0.24652,-0.90223 0.09906,-1.08718 0.167142,-0.0894 1.439191,-0.57689 2.826775,-1.08318 4.159275,-1.51764 5.43812,-2.23435 7.408429,-4.15196 1.966278,-1.91369 2.88864,-3.55749 4.549603,-8.10813 1.33108,-3.64684 1.62875,-3.62971 3.01968,0.17382 1.57147,4.29717 2.38731,5.7821 4.24283,7.7224 1.74941,1.82935 3.56905,2.86997 7.6131,4.35382 1.38375,0.50773 2.6558,0.99801 2.82677,1.08951 0.35144,0.18808 0.41567,0.85161 0.10601,1.09517 -0.11266,0.0886 -1.45845,0.62122 -2.99064,1.18356 -1.5322,0.56234 -3.33887,1.31679 -4.01484,1.67654 -2.22143,1.18227 -4.10488,2.93377 -5.47701,5.09329 -0.7318,1.15176 -1.01615,1.79956 -2.17421,4.95337 -0.49643,1.35193 -1.00759,2.62398 -1.13592,2.82677 -0.25607,0.40465 -0.74743,0.48464 -1.00666,0.16387 z"
       id="path5546"
       transform="matrix(0.43066289,0,0,0.43066289,45.147714,-27.10773)" /><path
       style="display:inline;fill:#ffffff;fill-opacity:1;stroke-width:0.0846568;stroke-miterlimit:4;stroke-dasharray:none"
       d="m 102.64581,140.01494 c 0.81129,-2.1683 1.26965,-2.95121 2.30087,-3.93 0.93522,-0.88771 1.70225,-1.30917 3.73171,-2.05047 1.46872,-0.53649 1.65123,-0.6211 1.55017,-0.71858 -0.0397,-0.0384 -0.7552,-0.32355 -1.58987,-0.63375 -0.83466,-0.3102 -1.66933,-0.6402 -1.85483,-0.73333 -1.39006,-0.69792 -2.70318,-2.01142 -3.39438,-3.39539 -0.13894,-0.27823 -0.49088,-1.15085 -0.78204,-1.93915 -0.52964,-1.43387 -0.62386,-1.63536 -0.71989,-1.53935 -0.0282,0.0281 -0.29557,0.70861 -0.59413,1.51197 -0.8217,2.21098 -1.17347,2.83704 -2.164158,3.85153 -1.023686,1.04829 -1.870576,1.52515 -4.212033,2.37165 -0.687611,0.24859 -1.243574,0.49612 -1.243574,0.55368 0,0.0576 0.59248,0.32045 1.327885,0.58903 1.55945,0.56952 2.560112,1.03488 3.117991,1.45004 0.992278,0.73842 1.85417,1.74345 2.368569,2.76194 0.19634,0.38873 0.93166,2.27666 1.32444,3.40049 0.0961,0.27504 0.27445,-0.0568 0.83327,-1.55031 z"
       id="path5548"
       transform="matrix(0.43066289,0,0,0.43066289,45.147714,-27.10773)" /></g></svg>
