<?xml version="1.0" encoding="UTF-8" standalone="no"?>
<!-- Created with Inkscape (http://www.inkscape.org/) -->

<svg
   width="48"
   height="48"
   viewBox="0 0 12.7 12.7"
   version="1.1"
   id="svg496"
   xml:space="preserve"
   xmlns="http://www.w3.org/2000/svg"
   xmlns:svg="http://www.w3.org/2000/svg"><defs
     id="defs493" /><g
     id="layer1"><path
       style="fill:#000000;stroke-width:0.0248537"
       d="M 5.8233708,12.68629 C 4.0421763,12.518853 2.4742114,11.678629 1.3710127,10.300409 0.64659727,9.3953995 0.1847561,8.2861741 0.03069703,7.0813097 -0.01001283,6.7629265 -0.01028751,5.9363456 0.03020932,5.6146935 0.26672165,3.736176 1.2672012,2.1033848 2.8165772,1.0673183 3.6438332,0.51413289 4.5259224,0.18062891 5.5251944,0.04323319 5.903863,-0.00883213 6.717756,-0.01513198 7.0782716,0.03121181 7.8448864,0.1297591 8.4924052,0.32438832 9.1762113,0.66180374 11.077863,1.6001502 12.399982,3.475307 12.655831,5.5969354 c 0.184367,1.5288659 -0.213688,3.1198566 -1.09594,4.3803786 -1.03119,1.473316 -2.6047461,2.430731 -4.394646,2.673878 -0.3337627,0.04534 -1.0371908,0.06374 -1.3418742,0.0351 z M 6.968251,11.256097 c 0.3469645,-0.04841 0.7569385,-0.151603 1.0791524,-0.27163 0.295107,-0.10993 0.8078663,-0.357508 0.8231953,-0.397468 C 8.8765487,10.571488 8.31457,9.9869542 7.6217575,9.288036 L 6.3620979,8.0172756 5.0863285,9.2762273 C 4.384655,9.9686495 3.8105588,10.548885 3.8105588,10.565639 c 0,0.01675 0.097845,0.08382 0.2174334,0.149032 0.464551,0.253331 1.0378744,0.448882 1.5580161,0.531413 0.3595185,0.05705 1.0113078,0.06177 1.3822427,0.01001 z M 3.4257543,7.6267153 4.6883192,6.3450656 3.7458705,5.3957184 C 3.2275237,4.8735781 2.6587197,4.2981567 2.4818616,4.1170049 2.3050035,3.935853 2.1523682,3.7876379 2.1426719,3.7876379 c -0.030619,0 -0.295071,0.5397187 -0.3954926,0.8071598 C 1.5310038,5.1705126 1.4489138,5.613104 1.4335288,6.285857 c -0.010889,0.4761723 -0.00649,0.5536699 0.050091,0.8824554 0.063233,0.3674328 0.196525,0.8174541 0.339609,1.1465871 0.1022407,0.2351825 0.2958962,0.5934665 0.3207734,0.5934665 0.010553,0 0.5873412,-0.5767429 1.2817521,-1.2816507 z M 10.736919,8.5665694 C 11.281429,7.4768082 11.405692,6.320408 11.105526,5.1362989 10.991795,4.6876522 10.714099,4.005085 10.578537,3.8409827 L 10.530197,3.7824664 9.2693074,5.0564559 C 8.5758185,5.7571502 8.0117008,6.340295 8.0157121,6.3523328 c 0.011759,0.03529 2.5061929,2.5560332 2.5293559,2.5560332 0.01159,0 0.09792,-0.1538088 0.191849,-0.3417966 z M 7.6312672,3.4001745 C 8.3180971,2.7084926 8.8729871,2.1311408 8.8643567,2.1171706 8.8331037,2.0665861 8.1894588,1.7718273 7.8983066,1.6747651 6.7740261,1.2999633 5.6364928,1.3225803 4.5808943,1.7407241 4.2584385,1.8684554 3.8111974,2.0969858 3.8100931,2.1345871 c -9.118e-4,0.031046 2.5134664,2.5201057 2.5475425,2.5218904 0.013667,7.141e-4 0.5868016,-0.5646203 1.2736316,-1.256303 z"
       id="path854" /></g></svg>
